<svg xmlns="http://www.w3.org/2000/svg" width="27.5" height="26.232" viewBox="0 0 27.5 26.232"><defs><style>.a{fill:none;stroke:#2b475e;stroke-linecap:round;stroke-linejoin:round;stroke-width:1.5px;}</style></defs><g transform="translate(0.75 0.75)"><line class="a" y2="2.537" transform="translate(12.683 1.902)"/><path class="a" d="M313.341,87c0,1.9-1.77,2.537-3.171,2.537S307,88.9,307,87" transform="translate(-297.488 -64.805)"/><path class="a" d="M297,60.8a3.8,3.8,0,0,1,3.8-3.8" transform="translate(-293.829 -53.829)"/><path class="a" d="M292,58.976A6.976,6.976,0,0,1,298.976,52" transform="translate(-292 -52)"/><path class="a" d="M325.8,60.8A3.8,3.8,0,0,0,322,57" transform="translate(-302.976 -53.829)"/><path class="a" d="M328.976,58.976A6.976,6.976,0,0,0,322,52" transform="translate(-302.976 -52)"/><path class="a" d="M313.219,70.81V65.59a6.506,6.506,0,0,0-5.949-6.577,6.341,6.341,0,0,0-6.733,6.329V70.81a2.887,2.887,0,0,1-.484,1.6l-1.889,2.833a.975.975,0,0,0-.164.54h0a.973.973,0,0,0,.973.973h15.809a.973.973,0,0,0,.973-.973h0a.975.975,0,0,0-.164-.54L313.7,72.409A2.887,2.887,0,0,1,313.219,70.81Z" transform="translate(-294.195 -54.561)"/></g></svg>