<svg
  xmlns="http://www.w3.org/2000/svg"
  width="25.5"
  height="25.5"
  viewBox="0 0 25.5 25.5"
><defs><style
    >.a{fill:none;stroke:#2b475e;stroke-linecap:round;stroke-linejoin:round;stroke-width:1.5px;}</style></defs><g
    transform="translate(0.75 0.75)"
  ><path
      class="a"
      d="M1749,1070v-20h-24v20"
      transform="translate(-1725 -1047.6)"
    /><line class="a" x2="24" transform="translate(0 8)" /><line
      class="a"
      y1="4.8"
      transform="translate(12)"
    /><line class="a" y1="4.8" transform="translate(8)" /><line
      class="a"
      y1="4.8"
      transform="translate(16)"
    /><line class="a" y1="4.8" transform="translate(4)" /><line
      class="a"
      y1="4.8"
      transform="translate(20)"
    /><path
      class="a"
      d="M1725,1425a1.6,1.6,0,0,0,1.6,1.6"
      transform="translate(-1725 -1402.6)"
    /><path
      class="a"
      d="M2146.6,1425a1.6,1.6,0,0,1-1.6,1.6"
      transform="translate(-2122.6 -1402.6)"
    /><line class="a" x2="20.8" transform="translate(1.6 24)" /><line
      class="a"
      y2="3.2"
      transform="translate(4 11.2)"
    /><line class="a" y2="3.2" transform="translate(7.2 11.2)" /><line
      class="a"
      x2="3.2"
      transform="translate(4 11.2)"
    /><line class="a" x1="3.2" transform="translate(4 14.4)" /><line
      class="a"
      y2="3.2"
      transform="translate(4 17.6)"
    /><line class="a" y2="3.2" transform="translate(7.2 17.6)" /><line
      class="a"
      x2="3.2"
      transform="translate(4 17.6)"
    /><line class="a" x1="3.2" transform="translate(4 20.8)" /><line
      class="a"
      y2="3.2"
      transform="translate(10.4 11.2)"
    /><line class="a" y2="3.2" transform="translate(13.6 11.2)" /><line
      class="a"
      x2="3.2"
      transform="translate(10.4 11.2)"
    /><line class="a" x1="3.2" transform="translate(10.4 14.4)" /><line
      class="a"
      y2="3.2"
      transform="translate(10.4 17.6)"
    /><line class="a" y2="3.2" transform="translate(13.6 17.6)" /><line
      class="a"
      x2="3.2"
      transform="translate(10.4 17.6)"
    /><line class="a" x1="3.2" transform="translate(10.4 20.8)" /><line
      class="a"
      y2="3.2"
      transform="translate(16.8 11.2)"
    /><line class="a" y2="3.2" transform="translate(20 11.2)" /><line
      class="a"
      x2="3.2"
      transform="translate(16.8 11.2)"
    /><line class="a" x1="3.2" transform="translate(16.8 14.4)" /><line
      class="a"
      y2="3.2"
      transform="translate(16.8 17.6)"
    /><line class="a" y2="3.2" transform="translate(20 17.6)" /><line
      class="a"
      x2="3.2"
      transform="translate(16.8 17.6)"
    /><line class="a" x1="3.2" transform="translate(16.8 20.8)" /></g></svg>
