<svg xmlns="http://www.w3.org/2000/svg" width="14.53" height="15" viewBox="0 0 14.53 15">
  <g id="Gruppe_33" data-name="Gruppe 33" transform="translate(-107.42 -1411)">
    <circle id="Ellipse_36" data-name="Ellipse 36" cx="2.52" cy="2.52" r="2.52" transform="translate(112.165 1415.98)" fill="none" stroke="#2b475e" stroke-linecap="round" stroke-linejoin="round" stroke-width="1"/>
    <path id="Pfad_302" data-name="Pfad 302" d="M111.123,1422.453a5.254,5.254,0,0,0,1.921,1.1l.241,1.943h2.8l.241-1.943a5.254,5.254,0,0,0,1.921-1.1l1.8.762,1.4-2.43-1.562-1.176a5.286,5.286,0,0,0,0-2.218l1.562-1.176-1.4-2.43-1.8.762a5.254,5.254,0,0,0-1.921-1.1l-.241-1.943h-2.8l-.241,1.943a5.254,5.254,0,0,0-1.921,1.1l-1.8-.762-1.4,2.43,1.562,1.176a5.286,5.286,0,0,0,0,2.218l-1.562,1.176,1.4,2.43Z" transform="translate(0 0)" fill="none" stroke="#2b475e" stroke-linecap="round" stroke-linejoin="round" stroke-width="1"/>
  </g>
</svg>
