<svg xmlns="http://www.w3.org/2000/svg" width="171.004" height="49" viewBox="0 0 171.004 49"><defs><style>.a{fill:#fff;}</style></defs><path class="a" d="M-470.551,11.938a1.286,1.286,0,0,0-.591.807,1.066,1.066,0,0,0,.4.994q1.33.97,2.663,1.939v.4l-.216-.136L-471.3,13.9c-.378-.3-.809-.675-.7-1.214a.849.849,0,0,1,.511-.617,1.594,1.594,0,0,1,.941-.133Z" transform="translate(476.253 4.624)"/><path class="a" d="M-474.987-97.961v6.923h-3.035v-6.923h-5.326v6.923h-3.03v-6.923H-491.7v6.923h-3.035v-6.923h-5.325v8h1.146v-6.922h3.033v6.922h5.327v-6.922h3.032v6.922h5.324v-6.922h3.033v6.922h5.325v-6.922h3.035v6.922h1.146v-8Z" transform="translate(500.074 97.961)"/><path class="a" d="M-468.708,54.553a2.531,2.531,0,0,0-.807-1.294c-1.129.272-2.286.54-3.416.836-.164.054-.3.133-.459.186a2.886,2.886,0,0,0-.241-2.905l-2.476,2.1c.645.889,1.265,1.8,1.908,2.69a1.815,1.815,0,0,0,.7.4l3.822.621,1.022.161V55.117l-.054-.565Z" transform="translate(479.724 -28.895)"/><path class="a" d="M-468.537,44.244c-.127-.059-.417-.2-.417-.2.237.37.476.714.713,1.03l.361-.3a2.068,2.068,0,0,0-.658-.525Z" transform="translate(473.648 -22.667)"/><path class="a" d="M-472.526,47.25c.21.344.473.663.711,1l.407-.344c-.27-.39-.747-.446-1.118-.661Z" transform="translate(476.682 -25.39)"/><path class="a" d="M-474.828,50.791c-.268-.429-.725-.483-1.1-.672a8.813,8.813,0,0,0,.713,1l.387-.325s0-.006,0-.009Z" transform="translate(479.574 -27.827)"/><path class="a" d="M-479.5,52.97c.212.344.474.689.711,1.03l.407-.342a2.677,2.677,0,0,0-1.118-.689Z" transform="translate(482.607 -30.249)"/><path class="a" d="M-482.727,56.007l.686,1.005.408-.344a2.1,2.1,0,0,0-1.094-.661Z" transform="translate(485.347 -32.829)"/><path class="a" d="M-404.006,125.908l1.225.181.02-.494a3.192,3.192,0,0,0-1.245.313Z" transform="translate(418.477 -91.935)"/><path class="a" d="M-402.984,130.027c-.4,0-.673.271-1.022.378.363.051.779.127,1.194.158l.023-.536Z" transform="translate(418.477 -95.706)"/><path class="a" d="M-403.905,134.766l-.456.215,1.219.155.023-.508a1.411,1.411,0,0,0-.786.138Z" transform="translate(418.779 -99.61)"/><path class="a" d="M-404.718,139.424l1.248.161.02-.511a2.511,2.511,0,0,0-1.268.35Z" transform="translate(419.082 -103.381)"/><path class="a" d="M-404.718,143.856c.389.079.8.13,1.22.183l.02-.508a2.32,2.32,0,0,0-1.239.325Z" transform="translate(419.082 -107.166)"/><path class="a" d="M-448.5,97.564c.409.051.821.1,1.232.155l.017-.483a2.794,2.794,0,0,0-1.249.327Z" transform="translate(456.276 -67.844)"/><path class="a" d="M-448.692,102.055l1.236.158.017-.514a2.512,2.512,0,0,0-1.253.356Z" transform="translate(456.436 -71.636)"/><path class="a" d="M-447.838,106.249a3.551,3.551,0,0,0-1.022.35,10.98,10.98,0,0,0,1.236.161l.018-.511Z" transform="translate(456.579 -75.508)"/><path class="a" d="M-448.026,110.712c-.4,0-.673.271-1.023.353l1.1.161.135.023.02-.536Z" transform="translate(456.739 -79.299)"/><path class="a" d="M-449.049,115.552l1.217.158.017-.486a1.893,1.893,0,0,0-1.234.327Z" transform="translate(456.739 -83.114)"/><path class="a" d="M-365.677,164.225l.775-.982-.411-.268c-.306.325-.258.827-.364,1.251Z" transform="translate(385.918 -123.693)"/><path class="a" d="M-361.569,166.64c.24-.316.529-.661.742-.98l-.442-.285c-.292.325-.2.847-.3,1.265Z" transform="translate(382.428 -125.733)"/><path class="a" d="M-357.819,169.076c.237-.291.529-.632.766-.949l-.456-.3a2.648,2.648,0,0,0-.31,1.245Z" transform="translate(379.243 -127.819)"/><path class="a" d="M-354.238,171.567c.263-.339.548-.655.786-.991l-.445-.288c-.285.347-.236.827-.342,1.279Z" transform="translate(376.201 -129.906)"/><path class="a" d="M-350.3,174.025l.762-.949-.425-.277a1.832,1.832,0,0,0-.337,1.225Z" transform="translate(372.855 -132.04)"/><path class="a" d="M-439.773,25.207l.082.054a5.477,5.477,0,0,0,1.129.215l-.052-.107-.19-1.507c-.054-.861-.858-1.426-1.506-1.883l-7.776-5.277a1.583,1.583,0,0,0-.563-.268.553.553,0,0,0,.213-.429.656.656,0,0,0-.372-.567l-2.261-1.211a1.648,1.648,0,0,0-.618-.161l.161-.107a.642.642,0,0,0,.227-.409.957.957,0,0,0-.172-.8.817.817,0,0,0-.82-.316.733.733,0,0,0-.607.559,1.1,1.1,0,0,0,0,.511c-.08-.107-.08-.243-.189-.322-.536-.3-1.047-.593-1.56-.836a.372.372,0,0,0-.4-.028c-.134.082-.162.243-.216.378l-.079-.11c-1.077-.618-2.179-1.209-3.256-1.8a.881.881,0,0,1,.216.375l.025,1.56c.646.486,1.345.889,1.99,1.4a.653.653,0,0,1,.271.375.872.872,0,0,1-.108.728.645.645,0,0,1-.621.3,5.711,5.711,0,0,1-1.533-1.025c0,.35,0,.728.027,1.1l4.251,2.961a2.785,2.785,0,0,1,.861,1.748v4.629l.135.672a3.914,3.914,0,0,0-1.4-1.4,3.032,3.032,0,0,0-.834-.294c-.01.37-.024.745-.041,1.121l-.065,1.784c0,.107,0,.215,0,.322l2.611.4c.3.028.672.11.861-.133l2.987-4.009h.028c-.028.107-.11.189-.11.3l.591.079.188-.107a5.185,5.185,0,0,0-.508.836,1.894,1.894,0,0,0,.159,1.615l2.339,3.794v.054l-.349-.485a3.817,3.817,0,0,0-1.99-1.344l-.079,1.781-.052,1.282-.011.192,2.967.4.24-.025a.687.687,0,0,0,.351-.378l1.023-2.476a12.521,12.521,0,0,1-.646-1.129,3.63,3.63,0,0,1-.267-2.5l.024-.133-1.692-1-.216-.161,2.233.4a.685.685,0,0,0,.566-.082,4.115,4.115,0,0,0-.479,1.445,4.7,4.7,0,0,0,.834,2.69l1.884,3.069a2,2,0,0,0,1.146.762h-.025a3.327,3.327,0,0,0-2.044.025,2.523,2.523,0,0,0-1.125.988l2.714,1.753,1.341-1.691c.35-.511.891-.915.891-1.587l-.645-6.244c0-.133-.082-.215-.082-.322m-14.882-11.168a.441.441,0,0,1-.44-.44.441.441,0,0,1,.44-.44.441.441,0,0,1,.44.44.441.441,0,0,1-.44.44Z" transform="translate(464.855 5.588)"/><path class="a" d="M-500.134-21.374V.881A15.233,15.233,0,0,0-484.918,16.1,15.232,15.232,0,0,0-469.7.881V-21.374Zm29.306,14.7L-491.2-20.249h20.371ZM-499.009.881V-2.867l22.385,15.114a14,14,0,0,1-8.294,2.726A14.108,14.108,0,0,1-499.009.881Zm23.293,10.648L-499.009-4.2V-20.249h5.822l22.359,14.895V.881A14.054,14.054,0,0,1-475.716,11.529Z" transform="translate(500.134 32.903)"/><g transform="translate(40.299 30.238)"><path class="a" d="M-230.382,124.259a1.538,1.538,0,0,0,1.7,1.783c1.093,0,1.782-.521,1.782-1.314,0-.833-.585-.975-1.782-1.262-2.237-.56-3.46-1.224-3.46-2.85,0-1.548,1.106-2.914,3.721-2.914a3.518,3.518,0,0,1,2.836,1.106,2.712,2.712,0,0,1,.534,1.743h-1.939a1.4,1.4,0,0,0-1.522-1.431c-.937,0-1.548.507-1.548,1.276,0,.872.689,1.028,2.042,1.366,1.626.39,3.226.833,3.226,2.666,0,1.691-1.4,3.056-4.007,3.056-3.6,0-3.629-2.315-3.642-3.225Z" transform="translate(232.437 -117.702)"/><path class="a" d="M-170.627,133.048a5.943,5.943,0,0,1-1.5.208c-1.939,0-1.939-1.224-1.939-1.769v-3.6h-1.262v-1.273h1.262v-1.289l1.913-.7v1.991h1.561v1.273h-1.561v2.967c.013.6.013.975.871.975a4.948,4.948,0,0,0,.65-.038Z" transform="translate(183.921 -123.576)"/><path class="a" d="M-131.506,143.054a5.276,5.276,0,0,1-.065-.9,2.187,2.187,0,0,1-1.964,1.053,2.172,2.172,0,0,1-1.639-.519,2.032,2.032,0,0,1-.572-1.444,2.184,2.184,0,0,1,1.392-2.042,6.862,6.862,0,0,1,2.6-.364,2.588,2.588,0,0,0-.091-.872.891.891,0,0,0-.859-.545.873.873,0,0,0-.728.364.985.985,0,0,0-.143.584h-1.886a1.838,1.838,0,0,1,.741-1.547,3.437,3.437,0,0,1,1.99-.534,3.158,3.158,0,0,1,2.342.844,2.6,2.6,0,0,1,.455,1.615l.013,2.639a7.938,7.938,0,0,0,.156,1.666Zm-2.368-2.03a.906.906,0,0,0,.936.937,1.089,1.089,0,0,0,.82-.378,2.411,2.411,0,0,0,.364-1.626C-132.989,139.854-133.874,140.245-133.874,141.024Z" transform="translate(150.302 -133.492)"/><path class="a" d="M-81.227,118.827h1.939v8.326c0,.391.026.82.052,1.067h-1.951l-.052-.95a1.764,1.764,0,0,1-.663.741,2.29,2.29,0,0,1-1.274.339c-1.757,0-2.8-1.21-2.8-3.265,0-2.172,1.184-3.524,2.9-3.524a2.1,2.1,0,0,1,1.847.9ZM-82.7,127.1a1.389,1.389,0,0,0,1.222-.742,3.488,3.488,0,0,0,.313-1.547c0-1.289-.56-1.99-1.431-1.99-1.288,0-1.431,1.547-1.431,2.21C-84.023,126.125-83.659,127.1-82.7,127.1Z" transform="translate(108.022 -118.658)"/><path class="a" d="M-28.918,133.048a5.943,5.943,0,0,1-1.5.208c-1.939,0-1.939-1.224-1.939-1.769v-3.6h-1.262v-1.273h1.262v-1.289l1.912-.7v1.991h1.561v1.273H-30.44v2.967c.013.6.013.975.872.975a4.948,4.948,0,0,0,.65-.038Z" transform="translate(63.544 -123.576)"/><path class="a" d="M34.654,118.827h3.512a4.646,4.646,0,0,1,2.315.442,2.356,2.356,0,0,1,1.054,2,1.874,1.874,0,0,1-.546,1.406,2.552,2.552,0,0,1-1.067.638v.025a2.248,2.248,0,0,1,1.991,2.289,2.418,2.418,0,0,1-1.379,2.21,6.02,6.02,0,0,1-2.368.378H34.654Zm1.925,3.826h1.405c.572,0,1.613,0,1.613-1.211,0-1.171-.989-1.171-1.652-1.171H36.579Zm0,4.058h1.366c.923,0,1.964,0,1.964-1.262,0-1.339-1.21-1.339-2.172-1.339H36.579Z" transform="translate(5.553 -118.658)"/><path class="a" d="M94.309,140.1c0,.429,0,1.756,1.339,1.756a1.076,1.076,0,0,0,1.146-.909h1.757a2.205,2.205,0,0,1-.627,1.431,3.2,3.2,0,0,1-2.3.766,3.26,3.26,0,0,1-2.315-.82,4.256,4.256,0,0,1,.519-5.671,3.293,3.293,0,0,1,1.848-.548,2.819,2.819,0,0,1,2.653,1.589,4.875,4.875,0,0,1,.392,2.405Zm2.446-1.208c0-.3-.027-1.471-1.145-1.471-.845,0-1.2.7-1.236,1.471Z" transform="translate(-43.552 -133.332)"/><path class="a" d="M144.406,138.941c0-.31-.052-1.262-.09-1.637h1.808l.038,1.262a1.977,1.977,0,0,1,2.237-1.276v1.73c-1.95-.182-2.068.819-2.068,1.639V143.9h-1.925Z" transform="translate(-87.6 -134.337)"/><path class="a" d="M177.442,137.72c0-.027,0-.742-.038-1.2h1.848l.051.988a2.276,2.276,0,0,1,2.134-1.146,2,2,0,0,1,2,1.236,5.468,5.468,0,0,1,.182,1.965v3.551h-1.965v-4.085a1.57,1.57,0,0,0-.1-.714,1,1,0,0,0-.937-.56,1.194,1.194,0,0,0-1,.507,1.8,1.8,0,0,0-.234,1v3.85h-1.939Z" transform="translate(-115.707 -133.556)"/></g><g transform="translate(40.65 13.34)"><path class="a" d="M-230.1,14.321V5.452h5.27v.737H-229.3V9.37h4.3v.737h-4.3v3.476h4.655v.737Z" transform="translate(230.103 -5.452)"/><path class="a" d="M-180.822,28.53h-.737V23.751c0-.479-.037-.971-.061-1.388h.761l.037.909.025.025a2.12,2.12,0,0,1,1.928-1.118,2.171,2.171,0,0,1,2.175,2.493V28.53h-.737V24.55a1.526,1.526,0,0,0-1.622-1.7c-1.217,0-1.77,1.02-1.77,2.126Z" transform="translate(188.919 -19.661)"/><path class="a" d="M-138.452,14.858h-1.228v-.675h1.228V12.869l.738-.32v1.634h1.4v.675h-1.4v4.128a.761.761,0,0,0,.847.872,2.172,2.172,0,0,0,.64-.074v.639a3.08,3.08,0,0,1-.75.111c-1.56,0-1.475-1-1.475-1.83Z" transform="translate(153.292 -11.481)"/><path class="a" d="M-107.348,22.179c1.166,0,2.15.4,2.247,1.707h-.8c-.075-.773-.762-1.032-1.524-1.032-.687,0-1.388.27-1.388,1,0,.909,1.191.823,2.863,1.413A1.5,1.5,0,0,1-104.9,26.7c0,1.388-1.29,2.015-2.593,2.015-1.069,0-2.3-.5-2.322-1.867h.8c.062.922.872,1.192,1.708,1.192.786,0,1.609-.368,1.609-1.229,0-.884-.971-1.032-1.953-1.253s-1.954-.516-1.954-1.658C-109.609,22.621-108.429,22.179-107.348,22.179Z" transform="translate(127.925 -19.661)"/><path class="a" d="M-62.608,25.446c0,1.622-.909,3.268-2.875,3.268s-2.874-1.646-2.874-3.268.909-3.267,2.874-3.267S-62.608,23.825-62.608,25.446Zm-2.875-2.592c-1.486,0-2.075,1.45-2.075,2.592s.589,2.592,2.075,2.592,2.076-1.45,2.076-2.592S-64,22.854-65.483,22.854Z" transform="translate(92.706 -19.661)"/><path class="a" d="M-18.841,28.5h-.737V23.723c.013-.479-.037-.971-.061-1.388h.761l.037.909h.025a1.586,1.586,0,0,1,1.387-1.093c.246-.012.491,0,.737.012v.713c-.147-.012-.306-.049-.454-.049-1.092,0-1.67.786-1.7,1.965Z" transform="translate(51.322 -19.633)"/><path class="a" d="M10.619,22.363h.761c-.024.418-.061.909-.061,1.388v3.7c0,1.229.061,2.519-1.3,3.157a2.817,2.817,0,0,1-1.4.282c-1.118,0-2.445-.381-2.445-1.658h.8c.086.737.958.983,1.744.983a1.8,1.8,0,0,0,1.867-1.708V27.351h-.025a2.256,2.256,0,0,1-2,1.154C6.7,28.505,5.9,27.092,5.9,25.4c0-1.671.75-3.218,2.628-3.218a2.355,2.355,0,0,1,2.027,1.143l.025-.05ZM8.6,22.854c-1.338,0-1.9,1.352-1.9,2.481s.577,2.494,1.929,2.494c1.413,0,1.954-1.315,1.954-2.518A2.2,2.2,0,0,0,8.6,22.854Z" transform="translate(29.626 -19.661)"/><path class="a" d="M59.066,23.4H59.8v4.779c0,.479.037.97.061,1.388H59.1l-.038-.909-.024-.025a2.122,2.122,0,0,1-1.928,1.118,2.171,2.171,0,0,1-2.175-2.493V23.4h.737v3.98a1.526,1.526,0,0,0,1.622,1.7c1.217,0,1.769-1.02,1.769-2.126Z" transform="translate(-12.029 -20.7)"/><path class="a" d="M101.519,28.53h-.737V23.751c0-.479-.037-.971-.061-1.388h.761l.037.909.025.025a2.12,2.12,0,0,1,1.927-1.118,2.172,2.172,0,0,1,2.177,2.493V28.53h-.74V24.55a1.524,1.524,0,0,0-1.62-1.7c-1.217,0-1.769,1.02-1.769,2.126Z" transform="translate(-50.92 -19.661)"/><path class="a" d="M149.173,22.363h.762c-.025.418-.062.909-.062,1.388v3.7c0,1.229.062,2.519-1.3,3.157a2.82,2.82,0,0,1-1.4.282c-1.118,0-2.445-.381-2.445-1.658h.8c.085.737.957.983,1.745.983a1.8,1.8,0,0,0,1.866-1.708V27.351h-.025a2.255,2.255,0,0,1-2,1.154c-1.855,0-2.654-1.413-2.654-3.108,0-1.671.751-3.218,2.628-3.218a2.353,2.353,0,0,1,2.027,1.143l.025-.05Zm-2.015.491c-1.338,0-1.9,1.352-1.9,2.481s.576,2.494,1.928,2.494c1.414,0,1.953-1.315,1.953-2.518A2.2,2.2,0,0,0,147.158,22.854Z" transform="translate(-88.071 -19.661)"/><path class="a" d="M219.71,23.4h.737v2.715h2.7v.737h-2.7v2.715h-.737V26.854h-2.7v-.737h2.7Z" transform="translate(-149.702 -20.7)"/><path class="a" d="M297.879,14.321h-.8V5.452h2.9a3.642,3.642,0,0,1,2.089.467,2.006,2.006,0,0,1,.909,1.855,1.994,1.994,0,0,1-1.708,1.9V9.7c1.129.184,1.375.946,1.485,1.978.161,1.437.113,2.1.469,2.641H302.3a7.084,7.084,0,0,1-.3-1.843c-.186-2.027-.308-2.383-1.917-2.383h-2.2Zm1.708-4.963c1.129,0,2.529-.074,2.529-1.585,0-1.707-1.6-1.584-2.445-1.584h-1.792V9.358Z" transform="translate(-217.719 -5.452)"/><path class="a" d="M347.16,25.619c.025,1.314.627,2.42,2.137,2.42a1.836,1.836,0,0,0,1.781-1.474h.773a2.585,2.585,0,0,1-2.786,2.15c-1.844,0-2.7-1.584-2.7-3.268s.923-3.267,2.752-3.267c2.064,0,2.815,1.511,2.815,3.44Zm3.969-.676a1.974,1.974,0,0,0-2-2.088,2.043,2.043,0,0,0-1.939,2.088Z" transform="translate(-259.581 -19.661)"/><path class="a" d="M396.539,24.255c-.059-.946-.664-1.4-1.683-1.4-1.129,0-1.829,1.179-1.829,2.58s.7,2.6,1.829,2.6a1.557,1.557,0,0,0,1.683-1.437h.8a2.19,2.19,0,0,1-2.408,2.113c-1.84,0-2.7-1.584-2.7-3.268s.92-3.267,2.752-3.267a2.18,2.18,0,0,1,2.357,2.076Z" transform="translate(-298.545 -19.661)"/><path class="a" d="M431.643,23.4l2.075,5.16,2.064-5.16h.8l-3.4,8.525h-.813l.934-2.359L430.745,23.4Z" transform="translate(-331.262 -20.7)"/><path class="a" d="M478.148,24.255c-.059-.946-.664-1.4-1.682-1.4-1.129,0-1.829,1.179-1.829,2.58s.7,2.6,1.829,2.6a1.556,1.556,0,0,0,1.682-1.437h.8a2.19,2.19,0,0,1-2.408,2.113c-1.84,0-2.7-1.584-2.7-3.268s.92-3.267,2.752-3.267a2.18,2.18,0,0,1,2.357,2.076Z" transform="translate(-367.868 -19.661)"/><path class="a" d="M519.055,14.321h-.737V5.452h.737Z" transform="translate(-405.652 -5.452)"/><path class="a" d="M537.687,6.373h-.861V5.452h.861Zm-.062,1.781v6.167h-.737V8.154Z" transform="translate(-421.374 -5.452)"/><path class="a" d="M556.487,28.53h-.737V23.751c0-.479-.037-.971-.059-1.388h.759l.036.909.026.025a2.122,2.122,0,0,1,1.928-1.118,2.172,2.172,0,0,1,2.177,2.493V28.53h-.74V24.55a1.524,1.524,0,0,0-1.62-1.7c-1.217,0-1.77,1.02-1.77,2.126Z" transform="translate(-437.399 -19.661)"/><path class="a" d="M604.138,22.363h.762c-.025.418-.062.909-.062,1.388v3.7c0,1.229.062,2.519-1.3,3.157a2.819,2.819,0,0,1-1.4.282c-1.118,0-2.445-.381-2.445-1.658h.8c.085.737.957.983,1.745.983a1.8,1.8,0,0,0,1.866-1.708V27.351h-.025a2.255,2.255,0,0,1-2,1.154c-1.854,0-2.653-1.413-2.653-3.108,0-1.671.751-3.218,2.628-3.218a2.354,2.354,0,0,1,2.027,1.143l.025-.05Zm-2.015.491c-1.338,0-1.9,1.352-1.9,2.481s.576,2.494,1.928,2.494c1.414,0,1.953-1.315,1.953-2.518A2.2,2.2,0,0,0,602.122,22.854Z" transform="translate(-474.546 -19.661)"/></g></svg>