<svg xmlns="http://www.w3.org/2000/svg" width="15.291" height="15.509" viewBox="0 0 15.291 15.509"><defs><style>.a{fill:none;stroke:#83a3be;stroke-linecap:round;stroke-linejoin:round;stroke-width:1.25px;}</style></defs><g transform="translate(-174.354 -83.375)"><path class="a" d="M178.142,105.217a3.119,3.119,0,0,1-2.859-1.263,2.936,2.936,0,0,1,.348-3.036L178.03,97" transform="translate(0 -9.044)"/><path class="a" d="M199.724,107.347l.471.769a2.936,2.936,0,0,1,.348,3.036,3.119,3.119,0,0,1-2.859,1.263H192" transform="translate(-11.826 -16.241)"/><path class="a" d="M188.224,86.333l.343-.559a2.841,2.841,0,0,1,5.265,0l2.269,3.7" transform="translate(-9.199)"/><path class="a" d="M193.826,121.652,192,119.826,193.826,118" transform="translate(-11.826 -23.652)"/><path class="a" d="M209.043,94l-.54,2.573-2.5-.747" transform="translate(-21.565 -6.957)"/><path class="a" d="M177,97.609,179.435,97l.913,2.13" transform="translate(-1.391 -9.044)"/></g></svg>