<svg xmlns="http://www.w3.org/2000/svg" width="27.25" height="31.25" viewBox="0 0 27.25 31.25"><defs><style>.a{fill:none;stroke:#fff;stroke-linecap:round;stroke-linejoin:round;stroke-width:1.25px;}</style></defs><g transform="translate(-14.845 -8.875)"><g transform="translate(15.47 9.5)"><line class="a" y1="9" transform="translate(4)"/><line class="a" y1="9" transform="translate(8)"/><line class="a" x2="4" transform="translate(4)"/><line class="a" y2="16" transform="translate(0 13)"/><line class="a" y2="16" transform="translate(12 13)"/><line class="a" x2="10" transform="translate(1 30)"/><line class="a" x1="12" transform="translate(0 24)"/><line class="a" x1="12" transform="translate(0 16)"/><path class="a" d="M676,720a1,1,0,0,1-1,1" transform="translate(-664 -691)"/><path class="a" d="M510,720a1,1,0,0,0,1,1" transform="translate(-510 -691)"/><line class="a" x2="4" transform="translate(4 6)"/><path class="a" d="M510,424a4,4,0,0,1,4-4" transform="translate(-510 -411)"/><path class="a" d="M634,424a4,4,0,0,0-4-4" transform="translate(-622 -411)"/></g><g transform="translate(27.47 18.714)"><line class="a" y1="14" transform="translate(0 2.546)"/><line class="a" y1="14" transform="translate(14 2.546)"/><line class="a" x2="1.273" transform="translate(2.546 2.546)"/><ellipse class="a" cx="7" cy="2.545" rx="7" ry="2.545"/><path class="a" d="M2519,2835c0,1.405-3.134,2.545-7,2.545s-7-1.14-7-2.545" transform="translate(-2505 -2818.455)"/></g></g></svg>