<svg
  xmlns="http://www.w3.org/2000/svg"
  width="26.074"
  height="24.78"
  viewBox="0 0 26.074 24.78"
><defs><style
    >.a{fill:none;stroke-linecap:round;stroke-linejoin:round;stroke-width:1.25px;}</style></defs><g
    transform="translate(0.812 0.625)"
  ><path
      class="a"
      d="M233.579,232.109l5.537-13.841,3.875,9.689"
      transform="translate(-233.579 -218.268)"
    /><path
      class="a"
      d="M315.047,260.788a3.389,3.389,0,0,1-3.46,3.46h-2.819"
      transform="translate(-290.411 -250.407)"
    /><path
      class="a"
      d="M306.635,221.728a3.389,3.389,0,0,0-3.46-3.46H301.1a3.389,3.389,0,0,0-3.46,3.46v6.3"
      transform="translate(-281.998 -218.268)"
    /><g transform="translate(9.411 9.689)"><path
        class="a"
        d="M272.126,271.794V257.953h5.537a3.46,3.46,0,0,1,0,6.921,3.46,3.46,0,0,1,0,6.921h-5.537"
        transform="translate(-272.126 -257.953)"
      /><line class="a" x1="5.537" transform="translate(0 6.921)" /></g><line
      class="a"
      x1="7.75"
      transform="translate(1.661 9.689)"
    /></g></svg>
