<svg xmlns="http://www.w3.org/2000/svg" width="14.53" height="15" viewBox="0 0 14.53 15">
  <g id="Gruppe_33" data-name="Gruppe 33" transform="translate(-107.42 -1411)">
    <path id="Ellipse_36" data-name="Ellipse 36" d="M2.52-.5A3.02,3.02,0,1,1-.5,2.52,3.023,3.023,0,0,1,2.52-.5Zm0,5.04A2.02,2.02,0,1,0,.5,2.52,2.022,2.022,0,0,0,2.52,4.54Z" transform="translate(112.165 1415.98)" fill="#2b475e"/>
    <path id="Pfad_302" data-name="Pfad 302" d="M116.085,1426h-2.8a.5.5,0,0,1-.5-.438l-.2-1.635a5.709,5.709,0,0,1-1.552-.892l-1.52.642a.5.5,0,0,1-.628-.211l-1.4-2.43a.5.5,0,0,1,.133-.649l1.315-.99a5.836,5.836,0,0,1,0-1.792l-1.315-.99a.5.5,0,0,1-.133-.649l1.4-2.43a.5.5,0,0,1,.628-.211l1.52.642a5.709,5.709,0,0,1,1.552-.892l.2-1.635a.5.5,0,0,1,.5-.438h2.8a.5.5,0,0,1,.5.438l.2,1.635a5.709,5.709,0,0,1,1.552.892l1.52-.642a.5.5,0,0,1,.628.211l1.4,2.43a.5.5,0,0,1-.133.649l-1.315.99a5.835,5.835,0,0,1,0,1.792l1.315.99a.5.5,0,0,1,.133.649l-1.4,2.43a.5.5,0,0,1-.628.211l-1.52-.642a5.709,5.709,0,0,1-1.552.892l-.2,1.635A.5.5,0,0,1,116.085,1426Zm-2.358-1h1.916l.186-1.5a.5.5,0,0,1,.345-.415,4.73,4.73,0,0,0,1.738-1,.5.5,0,0,1,.529-.089l1.4.59.959-1.664-1.209-.91a.5.5,0,0,1-.188-.506,4.786,4.786,0,0,0,0-2,.5.5,0,0,1,.188-.506l1.209-.91-.959-1.664-1.4.59a.5.5,0,0,1-.529-.089,4.732,4.732,0,0,0-1.738-1,.5.5,0,0,1-.345-.415l-.186-1.5h-1.916l-.186,1.5a.5.5,0,0,1-.345.415,4.732,4.732,0,0,0-1.738,1,.5.5,0,0,1-.529.089l-1.4-.59-.959,1.664,1.209.91a.5.5,0,0,1,.188.506,4.786,4.786,0,0,0,0,2,.5.5,0,0,1-.188.506l-1.209.91.959,1.664,1.4-.59a.5.5,0,0,1,.529.089,4.73,4.73,0,0,0,1.738,1,.5.5,0,0,1,.345.415Z" transform="translate(0 0)" fill="#2b475e"/>
  </g>
</svg>
