<svg
  xmlns="http://www.w3.org/2000/svg"
  width="39.414"
  height="39.25"
  viewBox="0 0 39.414 39.25"
><defs><style
    >.a,.b,.c{fill:none;stroke-width:1.25px;}.a,.b{}.a,.c{stroke-linecap:round;stroke-linejoin:round;}.c{stroke:#83a3be;}</style></defs><g
    transform="translate(0.812 0.625)"
  ><g transform="translate(456.5 -1617)"><g
        transform="translate(-456.5 1629)"
      ><line class="a" y1="17.08" transform="translate(0 5.124)" /><path
          class="a"
          d="M-186.5,1863"
          transform="translate(212.12 -1840.796)"
        /><line class="a" y2="8.92" transform="translate(25.62 5.124)" /><line
          class="a"
          x2="8.54"
          transform="translate(0 22.204)"
        /><line
          class="a"
          y1="5.124"
          x2="12.81"
          transform="translate(0 0)"
        /><path
          class="a"
          d="M-308.69,1634.124-321.5,1629v14.044"
          transform="translate(334.31 -1629)"
        /></g><line
        class="a"
        y1="11.956"
        transform="translate(-447.96 1643.044)"
      /><line
        class="a"
        y1="6.832"
        transform="translate(-444.544 1645.606)"
      /><line
        class="a"
        y1="6.832"
        transform="translate(-441.128 1645.606)"
      /><line
        class="a"
        y1="6.832"
        transform="translate(-437.712 1645.606)"
      /><line
        class="a"
        y1="6.832"
        transform="translate(-434.296 1645.606)"
      /><line
        class="a"
        y1="6.832"
        transform="translate(-430.88 1645.606)"
      /><line
        class="a"
        y1="6.832"
        transform="translate(-427.464 1645.606)"
      /><line
        class="a"
        y1="11.956"
        transform="translate(-424.047 1643.044)"
      /><line
        class="a"
        x2="23.912"
        transform="translate(-447.96 1643.044)"
      /><line class="a" x1="23.912" transform="translate(-447.96 1655)" /><path
        class="b"
        d="M-394.291,1667.17l-2.427.851a.6.6,0,0,0-.4.533c-.054,1.133-.032,4.236,1.887,3.839,1.76-.365,1.808-3.276,1.723-4.7A.592.592,0,0,0-394.291,1667.17Z"
        transform="translate(-53.238 -33.308)"
      /></g><g transform="translate(-151.044 -84)"><path
        class="c"
        d="M178.142,105.217a3.119,3.119,0,0,1-2.859-1.263,2.936,2.936,0,0,1,.348-3.036L178.03,97"
        transform="translate(0 -9.044)"
      /><path
        class="c"
        d="M199.724,107.347l.471.769a2.936,2.936,0,0,1,.348,3.036,3.119,3.119,0,0,1-2.859,1.263H192"
        transform="translate(-11.826 -16.241)"
      /><path
        class="c"
        d="M188.224,86.333l.343-.559a2.841,2.841,0,0,1,5.265,0l2.269,3.7"
        transform="translate(-9.199)"
      /><path
        class="c"
        d="M193.826,121.652,192,119.826,193.826,118"
        transform="translate(-11.826 -23.652)"
      /><path
        class="c"
        d="M209.043,94l-.54,2.573-2.5-.747"
        transform="translate(-21.565 -6.957)"
      /><path
        class="c"
        d="M177,97.609,179.435,97l.913,2.13"
        transform="translate(-1.391 -9.044)"
      /></g></g></svg>
