<svg
  xmlns="http://www.w3.org/2000/svg"
  width="37.271"
  height="38.25"
  viewBox="0 0 37.271 38.25"
><defs><style
    >.a,.b{fill:none;stroke-linecap:round;stroke-linejoin:round;stroke-width:1.25px;}.a{}.b{stroke:#83a3be;}</style></defs><g
    transform="translate(0.625 0.625)"
  ><g transform="translate(-15.47 -2.5)"><g
        transform="translate(15.47 9.5)"
      ><line class="a" y1="9" transform="translate(4)" /><line
          class="a"
          y1="9"
          transform="translate(8)"
        /><line class="a" x2="4" transform="translate(4)" /><line
          class="a"
          y2="16"
          transform="translate(0 13)"
        /><line class="a" y2="16" transform="translate(12 13)" /><line
          class="a"
          x2="10"
          transform="translate(1 30)"
        /><line class="a" x1="12" transform="translate(0 24)" /><line
          class="a"
          x1="12"
          transform="translate(0 16)"
        /><path
          class="a"
          d="M676,720a1,1,0,0,1-1,1"
          transform="translate(-664 -691)"
        /><path
          class="a"
          d="M510,720a1,1,0,0,0,1,1"
          transform="translate(-510 -691)"
        /><line class="a" x2="4" transform="translate(4 6)" /><path
          class="a"
          d="M510,424a4,4,0,0,1,4-4"
          transform="translate(-510 -411)"
        /><path
          class="a"
          d="M634,424a4,4,0,0,0-4-4"
          transform="translate(-622 -411)"
        /></g><g transform="translate(27.47 18.714)"><line
          class="a"
          y1="14"
          transform="translate(0 2.546)"
        /><line class="a" y1="14" transform="translate(14 2.546)" /><line
          class="a"
          x2="1.273"
          transform="translate(2.546 2.546)"
        /><ellipse class="a" cx="7" cy="2.545" rx="7" ry="2.545" /><path
          class="a"
          d="M2519,2835c0,1.405-3.134,2.545-7,2.545s-7-1.14-7-2.545"
          transform="translate(-2505 -2818.455)"
        /></g></g><g transform="translate(-153 -84)"><path
        class="b"
        d="M178.142,105.217a3.119,3.119,0,0,1-2.859-1.263,2.936,2.936,0,0,1,.348-3.036L178.03,97"
        transform="translate(0 -9.044)"
      /><path
        class="b"
        d="M199.724,107.347l.471.769a2.936,2.936,0,0,1,.348,3.036,3.119,3.119,0,0,1-2.859,1.263H192"
        transform="translate(-11.826 -16.241)"
      /><path
        class="b"
        d="M188.224,86.333l.343-.559a2.841,2.841,0,0,1,5.265,0l2.269,3.7"
        transform="translate(-9.199)"
      /><path
        class="b"
        d="M193.826,121.652,192,119.826,193.826,118"
        transform="translate(-11.826 -23.652)"
      /><path
        class="b"
        d="M209.043,94l-.54,2.573-2.5-.747"
        transform="translate(-21.565 -6.957)"
      /><path
        class="b"
        d="M177,97.609,179.435,97l.913,2.13"
        transform="translate(-1.391 -9.044)"
      /></g></g></svg>
