<svg
  xmlns="http://www.w3.org/2000/svg"
  width="24.444"
  height="25.25"
  viewBox="0 0 24.444 25.25"
><defs><style
    >.a{fill:none;stroke-linecap:round;stroke-linejoin:round;stroke-width:1.25px;}</style></defs><g
    transform="translate(0.625 0.625)"
  ><circle
      class="a"
      cx="4.32"
      cy="4.32"
      r="4.32"
      transform="translate(7.277 7.68)"
    /><path
      class="a"
      d="M113.411,1430.278a9.01,9.01,0,0,0,3.293,1.891l.413,3.331h4.8l.413-3.331a9.01,9.01,0,0,0,3.293-1.891l3.091,1.306,2.4-4.166-2.678-2.016a9.062,9.062,0,0,0,0-3.8l2.678-2.016-2.4-4.166-3.091,1.306a9.012,9.012,0,0,0-3.293-1.891l-.413-3.331h-4.8l-.413,3.331a9.012,9.012,0,0,0-3.293,1.891l-3.091-1.306-2.4,4.166,2.678,2.016a9.062,9.062,0,0,0,0,3.8l-2.678,2.016,2.4,4.166Z"
      transform="translate(-107.92 -1411.5)"
    /></g></svg>
